<!DOCTYPE svg PUBLIC "-//W3C//DTD SVG 1.1//EN" "http://www.w3.org/Graphics/SVG/1.1/DTD/svg11.dtd">
<!-- Uploaded to: SVG Repo, www.svgrepo.com, Transformed by: SVG Repo Mixer Tools -->
<svg fill="#ffffff" version="1.1" id="Capa_1" xmlns="http://www.w3.org/2000/svg" xmlns:xlink="http://www.w3.org/1999/xlink" width="241px" height="241px" viewBox="-9.59 -9.59 115.12 115.12" xml:space="preserve" stroke="#ffffff">
<g id="SVGRepo_bgCarrier" stroke-width="0" transform="translate(3.837519999999998,3.837519999999998), scale(0.92)">
<path transform="translate(-9.59, -9.59), scale(3.5975)" d="M16,26.516363435081743C17.798225591401025,27.022732194238955,19.476950723671763,28.110831709899436,21.341676927373356,27.997602813196238C23.35904952754278,27.87510500450829,25.748578287409913,27.483290250182915,26.941717177677383,25.851966398343862C28.16796484530378,24.175374440124735,27.154871556864236,21.767981559197356,27.406058579953594,19.70605308901326C27.61300808544817,18.007258812057387,27.9702233751942,16.386684123784796,28.299378134167945,14.707283266964897C28.73682056015751,12.475381205737659,30.58398216872236,10.188776121356415,29.68048346530714,8.1015691886607C28.81486499936798,6.101870842278757,26.138905648556634,5.555582768440177,24.05800031684271,4.90911404874671C22.241535267167347,4.344798211243251,20.285787087473068,4.985303978888591,18.422290416729798,4.604019571551911C16.575237902017594,4.226099753154343,15.05174974054798,2.7793476245494677,13.16899033958885,2.6811467114053116C11.142311365800701,2.575439245132844,8.726155383941656,2.5811733896897815,7.2988115012229,4.023841463671484C5.81199303878647,5.526622645931437,6.747647346952777,8.222246975607892,5.811475729766684,10.117652769935752C4.950342440849752,11.861133340739373,1.65801592956144,12.647070635498048,2.104923562024668,14.539568617028472C2.650906957141939,16.85161790451426,7.3679933188749,16.324612163930826,7.827630204021899,18.65536391161218C8.378960481461593,21.451079506284795,2.973412920407734,23.964079288028962,4.444734240184399,26.40440802307431C5.746718004788984,28.56387404223685,9.327034998920706,25.299959475580405,11.848514404794814,25.32438931316446C13.30408972055881,25.33849193421805,14.59884882629775,26.12180827770213,16,26.516363435081743" fill="#ffc800" strokewidth="0"/>
</g>
<g id="SVGRepo_tracerCarrier" stroke-linecap="round" stroke-linejoin="round" stroke="#CCCCCC" stroke-width="3.645644"> <g> <path d="M95.329,59.861c-0.031-7.134-0.053-12.289-3.562-16.824c-3.975-5.134-10.106-6.004-15.076-6.152 c0.837-3.587,1.079-7.564,0.692-11.863C77.277,10.705,66.624,0.414,51.839,0.006L51.626,0L29.012,0.018l-0.243-0.001 c-8.795,0-15.747,2.626-20.664,7.804c-3.043,3.203-7.085,8.798-7.513,17.845l-0.018,36.48c-0.044,0.689,0.025,1.385,0.016,2.1 c0,10.379,1.661,17.85,6.848,23.371c5.183,5.521,12.847,8.32,22.776,8.32c0.215,0,0.432-0.001,0.649-0.004H65.41h0.082 c8.858-0.074,16.343-2.998,21.646-8.455c5.293-5.447,8.143-13.208,8.24-22.441C95.377,65.037,95.335,61.32,95.329,59.861z M30.846,19.457l19.322-0.023c4.554,0.072,8.188,4.151,8.114,8.705c-0.072,4.509-3.749,7.799-8.242,7.799 c-0.044,0-19.455,0.008-19.455,0.008c-4.554-0.073-8.186-3.823-8.113-8.375C22.544,23.017,26.286,19.413,30.846,19.457z M67.164,73.732H28.521c-4.553,0-8.246-3.691-8.246-8.246c0-4.554,3.693-8.246,8.246-8.246h38.644c4.555,0,8.246,3.692,8.246,8.246 C75.411,70.041,71.719,73.732,67.164,73.732z"/> </g> </g>
<g id="SVGRepo_iconCarrier"> <g> <path d="M95.329,59.861c-0.031-7.134-0.053-12.289-3.562-16.824c-3.975-5.134-10.106-6.004-15.076-6.152 c0.837-3.587,1.079-7.564,0.692-11.863C77.277,10.705,66.624,0.414,51.839,0.006L51.626,0L29.012,0.018l-0.243-0.001 c-8.795,0-15.747,2.626-20.664,7.804c-3.043,3.203-7.085,8.798-7.513,17.845l-0.018,36.48c-0.044,0.689,0.025,1.385,0.016,2.1 c0,10.379,1.661,17.85,6.848,23.371c5.183,5.521,12.847,8.32,22.776,8.32c0.215,0,0.432-0.001,0.649-0.004H65.41h0.082 c8.858-0.074,16.343-2.998,21.646-8.455c5.293-5.447,8.143-13.208,8.24-22.441C95.377,65.037,95.335,61.32,95.329,59.861z M30.846,19.457l19.322-0.023c4.554,0.072,8.188,4.151,8.114,8.705c-0.072,4.509-3.749,7.799-8.242,7.799 c-0.044,0-19.455,0.008-19.455,0.008c-4.554-0.073-8.186-3.823-8.113-8.375C22.544,23.017,26.286,19.413,30.846,19.457z M67.164,73.732H28.521c-4.553,0-8.246-3.691-8.246-8.246c0-4.554,3.693-8.246,8.246-8.246h38.644c4.555,0,8.246,3.692,8.246,8.246 C75.411,70.041,71.719,73.732,67.164,73.732z"/> </g> </g>
</svg>